<svg xmlns="http://www.w3.org/2000/svg" viewBox="0 0 64 64"><defs><style>.cls-1{fill:#fff;opacity:0.01;}.cls-2,.cls-3{fill:none;stroke-linecap:round;stroke-linejoin:round;stroke-width:2px;}.cls-2{stroke:#475867;}.cls-3{stroke:#00a886;}</style></defs><g id="White_BG" data-name="White BG"><rect class="cls-1" width="64" height="64"></rect></g><g id="Artwork"><circle class="cls-2" cx="32.05" cy="30.65" r="14.75"></circle><path class="cls-2" d="M38.27,44.4v8.8a1.56,1.56,0,0,1-1.55,1.56H27.39a1.56,1.56,0,0,1-1.55-1.56V44.4"></path><line class="cls-2" x1="30.54" y1="58.94" x2="33.65" y2="58.94"></line><path class="cls-2" d="M42.35,34.16a10.65,10.65,0,0,1-.87,1.91"></path><path class="cls-2" d="M32.05,19.78A10.88,10.88,0,0,1,42.93,30.65"></path><line class="cls-3" x1="32" y1="5.06" x2="32" y2="9.64"></line><line class="cls-3" x1="13.9" y1="12.55" x2="17.14" y2="15.79"></line><line class="cls-3" x1="50.1" y1="48.75" x2="46.86" y2="45.52"></line><line class="cls-3" x1="6.4" y1="30.65" x2="10.98" y2="30.65"></line><line class="cls-3" x1="57.6" y1="30.65" x2="53.02" y2="30.65"></line><line class="cls-3" x1="13.9" y1="48.75" x2="17.14" y2="45.52"></line><line class="cls-3" x1="50.1" y1="12.55" x2="46.86" y2="15.79"></line></g></svg>